<?xml version="1.0" standalone="no"?>
<!DOCTYPE svg PUBLIC "-//W3C//DTD SVG 20010904//EN"
 "http://www.w3.org/TR/2001/REC-SVG-20010904/DTD/svg10.dtd">
<svg version="1.0" xmlns="http://www.w3.org/2000/svg"
 width="1024.000000pt" height="1024.000000pt" viewBox="0 0 1024.000000 1024.000000"
 preserveAspectRatio="xMidYMid meet">
<metadata>
Created by potrace 1.11, written by Peter Selinger 2001-2013
</metadata>
<g transform="translate(0.000000,1024.000000) scale(0.100000,-0.100000)"
fill="#000000" stroke="none">
<path d="M1279 10223 c-4 -87 -3 -10207 2 -10214 3 -5 259 -8 625 -7 l619 3
-1 2730 c-1 2343 -5 3191 -19 3775 -5 221 -16 616 -20 710 -2 52 -6 167 -10
255 -3 88 -7 198 -10 245 -15 308 -16 320 -29 618 -3 53 -8 134 -11 179 -6 77
-5 82 15 88 12 4 23 5 25 3 1 -1 29 -59 61 -128 67 -141 301 -609 389 -775
109 -208 164 -308 348 -640 82 -148 158 -282 168 -297 11 -14 19 -28 19 -31 0
-8 410 -701 556 -941 30 -49 54 -91 54 -93 0 -2 9 -16 19 -31 11 -15 323 -513
694 -1107 1180 -1891 1362 -2180 1369 -2183 5 -2 8 -8 8 -13 0 -5 20 -40 44
-77 24 -37 202 -321 396 -632 445 -712 541 -865 560 -894 8 -13 31 -50 50 -81
19 -31 42 -68 50 -81 181 -289 297 -474 347 -551 l33 -53 670 0 670 0 0 5120
0 5120 -626 0 -626 0 5 -2882 c3 -1586 8 -2948 10 -3028 3 -80 8 -248 11 -375
4 -126 9 -273 11 -325 3 -52 7 -160 10 -240 6 -157 12 -274 20 -415 9 -149 16
-266 20 -350 3 -44 8 -114 11 -155 3 -41 7 -102 9 -135 2 -33 6 -87 9 -120 3
-33 8 -98 11 -145 4 -47 8 -101 10 -120 17 -176 17 -210 1 -210 -10 0 -26 21
-42 58 -68 154 -420 865 -516 1042 -19 36 -57 106 -83 155 -50 95 -203 375
-250 460 -48 85 -145 259 -155 275 -5 8 -35 60 -66 115 -114 198 -449 754
-582 967 -76 120 -141 226 -147 235 -5 10 -26 43 -46 73 -20 30 -87 136 -149
235 -62 99 -132 209 -155 245 -23 36 -124 196 -225 355 -160 254 -332 524
-600 948 -41 64 -86 135 -100 157 -148 235 -238 377 -386 610 -96 151 -225
354 -285 450 -61 96 -145 229 -187 295 -259 406 -512 807 -512 811 0 3 -5 10
-10 17 -12 14 -15 18 -314 492 -126 198 -249 393 -274 432 l-47 73 -722 0
c-682 0 -723 -1 -724 -17z"/>
</g>
</svg>
