<?xml version="1.0" encoding="utf-8"?>
<!-- Generator: Adobe Illustrator 22.0.1, SVG Export Plug-In . SVG Version: 6.00 Build 0)  -->
<svg version="1.1" id="Layer_1" xmlns="http://www.w3.org/2000/svg" xmlns:xlink="http://www.w3.org/1999/xlink" x="0px" y="0px"
	 viewBox="0 0 510 200" style="enable-background:new 0 0 510 200;" xml:space="preserve">
<style type="text/css">
	.st0{fill:#FFFFFF;}
</style>
<path class="st0" d="M109.4,151.6l-12.6-29.4H35.6L23,151.6H-0.2L56.6,26h18.7l56.8,125.5H109.4z M43.1,104.4h45.9L66.1,51
	L43.1,104.4z"/>
<path class="st0" d="M213.7,67.9c5.8,3.7,10.4,8.9,13.6,15.7c3.3,6.8,4.9,14.7,4.9,23.7c0,9-1.6,17-4.9,23.9
	c-3.3,6.9-7.8,12.3-13.7,16.1c-5.9,3.8-12.6,5.7-20,5.7c-6.3,0-11.9-1.4-16.8-4.1c-4.9-2.7-8.7-6.5-11.3-11.4v14.1h-21.9V26h22.3
	v51.1c2.6-4.7,6.3-8.4,11.2-11c4.9-2.6,10.4-3.8,16.6-3.8C201.2,62.4,207.9,64.2,213.7,67.9z M204.1,128.3c3.9-5,5.9-12,5.9-21
	c0-8.9-1.9-15.7-5.8-20.5c-3.9-4.7-9.3-7.1-16.5-7.1s-12.6,2.4-16.5,7.2c-3.9,4.8-5.8,11.7-5.8,20.7c0,9,1.9,16,5.8,20.8
	c3.9,4.9,9.3,7.3,16.5,7.3C194.7,135.7,200.2,133.2,204.1,128.3z"/>
<path class="st0" d="M273.7,128.6c-3.8-4.7-5.7-11.8-5.7-21c0-9.1,1.9-16.1,5.8-20.9c3.8-4.7,9.2-7.1,16.2-7.2V62.4
	c-8.8,0-16.5,1.9-23.2,5.5c-6.7,3.7-11.9,8.9-15.6,15.8c-3.7,6.8-5.5,14.8-5.5,23.9c0,9.1,1.8,17.2,5.5,24
	c3.7,6.9,8.9,12.2,15.6,15.8c6.6,3.6,14.4,5.5,23.2,5.5v-17.3C282.9,135.7,277.5,133.3,273.7,128.6z"/>
<path d="M313.7,147.5c6.7-3.7,11.9-9,15.5-15.8c3.6-6.9,5.4-14.9,5.4-24c0-9.1-1.8-17.1-5.4-23.9c-3.6-6.8-8.8-12.1-15.5-15.8
	c-6.7-3.7-14.5-5.5-23.4-5.5c-0.1,0-0.2,0-0.3,0v17.1c0.1,0,0.2,0,0.3,0c7.1,0,12.6,2.4,16.4,7.2c3.8,4.8,5.7,11.8,5.7,20.9
	c0,9.3-1.9,16.3-5.7,21c-3.8,4.7-9.3,7.1-16.6,7.1c0,0-0.1,0-0.1,0V153c0.1,0,0.2,0,0.3,0C299.2,153,307,151.2,313.7,147.5z"/>
<path d="M410.6,112.9c0,6.8-1.9,12.2-5.6,16.3s-8.7,6.1-14.9,6.1c-5.3,0-9.3-1.5-11.8-4.5c-2.5-3-3.7-7.5-3.7-13.7V64.5h-22.3V117
	c0,24,10.7,36,32.1,36c5.8,0,11-1.3,15.7-3.8c4.6-2.6,8.3-6.2,11-11v13.4h21.7V64.5h-22.3V112.9z"/>
<path d="M484.3,118.8V81.2h23V64.5h-23v-26h-22.3v26h-16.7v16.7h16.7v37.9c0,11.2,2.9,19.6,8.7,25.2c5.8,5.6,14.8,8.5,27.1,8.5
	c3,0,6.2-0.2,9.8-0.5l1.1-16.6c-2.8,0.4-5.6,0.5-8.2,0.5C489.7,136.3,484.3,130.5,484.3,118.8z"/>
</svg>
