<?xml version="1.0" encoding="utf-8"?>
<!-- Generator: Adobe Illustrator 22.0.0, SVG Export Plug-In . SVG Version: 6.00 Build 0)  -->
<svg version="1.1" id="Layer_1" xmlns="http://www.w3.org/2000/svg" xmlns:xlink="http://www.w3.org/1999/xlink" x="0px" y="0px"
	 viewBox="0 0 512 512" style="enable-background:new 0 0 512 512;" xml:space="preserve">
<g id="Desktop">
	<g id="Desktop---Landing" transform="translate(-705.000000, -642.000000)">
		<g id="circular-down-arrow-button" transform="translate(705.000000, 642.000000)">
			<path id="Shape" d="M460.6,282.1c9.6,9.6,9.6,26,0,35.6L274.4,505.2c-1.4,1.4-2.8,2.8-4.1,2.8l-1.4,1.4c-1.4,0-1.4,1.4-2.8,1.4
				c-1.4,0-1.4,0-2.8,1.4c-1.4,0-1.4,0-2.8,0s-2.8,0-5.4,0c-1.4,0-2.8,0-5.4,0c-1.4,0-1.4,0-2.8,0c-1.4,0-1.4,0-2.8-1.4
				c-1.4,0-1.4-1.4-2.8-1.4c0,0-1.4,0-1.4-1.4c-1.4-1.4-2.8-1.4-4.1-2.8L51.4,316.3c-9.6-9.6-9.6-26,0-35.6c9.6-9.6,26-9.6,35.6,0
				l145.1,145.1V24.7c0-13.7,10.9-24.6,24.6-24.6s24.6,10.9,24.6,24.6v401l142.4-142.3C434.6,272.5,451.1,272.5,460.6,282.1z"/>
		</g>
	</g>
</g>
</svg>
