<?xml version="1.0" encoding="utf-8"?>
<!-- Generator: Adobe Illustrator 22.0.1, SVG Export Plug-In . SVG Version: 6.00 Build 0)  -->
<svg version="1.1" id="Layer_2" xmlns="http://www.w3.org/2000/svg" xmlns:xlink="http://www.w3.org/1999/xlink" x="0px" y="0px"
	 viewBox="0 0 822 200" style="enable-background:new 0 0 822 200;" xml:space="preserve">
<style type="text/css">
	.st0{fill:#FFFFFF;}
</style>
<path d="M632,74v16.8c1.7,0.9,3.2,2,4.4,3.5c3.3,3.7,5.1,9.2,5.3,16.5H632v11.9h28.8v-6.2c0-13.5-3.5-24.1-10.4-31.9
	C645.5,79.1,639.4,75.6,632,74z"/>
<path d="M644.2,160.6c6.1-2,11.2-4.7,15.2-8l-6.4-15.3c-6.4,5-13.4,8-21,8.9v17.1C636.1,162.8,640.1,161.9,644.2,160.6z"/>
<path d="M728.1,73.3c-14.1,1-23.4,6.6-27.9,17.1V75.1H679v87h22.3v-47c0-13.4,7.4-20.9,22.1-22.4l13-1.2l-1.4-18.7L728.1,73.3z"/>
<path d="M821.7,116.4c0-13.5-3.5-24.1-10.4-31.9c-6.9-7.7-16.4-11.6-28.4-11.6c-8.2,0-15.5,1.9-22,5.7c-6.5,3.8-11.5,9.1-15,16
	c-3.6,6.9-5.3,14.8-5.3,23.7c0,14,4.1,25,12.4,33.1c8.2,8.1,19.5,12.1,33.7,12.1c6.2,0,12.3-1,18.4-3c6.1-2,11.2-4.7,15.2-8
	l-6.4-15.3c-8,6.2-16.7,9.3-26.3,9.3c-7.7,0-13.6-2-17.8-5.9c-4.2-3.9-6.6-9.9-7.3-18h59.3V116.4z M762.5,110.7
	c0.8-7.1,3.1-12.6,6.7-16.4c3.6-3.8,8.4-5.7,14.3-5.7c5.9,0,10.6,1.9,13.9,5.6c3.3,3.7,5.1,9.2,5.3,16.5H762.5z"/>
<polygon class="st0" points="0.4,162.2 84.5,162.2 84.5,144 22.9,144 22.9,107.3 80.9,107.3 80.9,89.4 22.9,89.4 22.9,54.8 
	84.5,54.8 84.5,36.7 0.4,36.7 "/>
<rect x="103.3" y="36.7" class="st0" width="22.3" height="125.5"/>
<path class="st0" d="M191.8,112.1l-14.8-3.4c-3.8-0.8-6.6-2-8.3-3.6c-1.7-1.5-2.6-3.5-2.6-5.9c0-3.2,1.4-5.7,4.1-7.5
	c2.7-1.8,6.5-2.7,11.4-2.7c9,0,18,3.3,27.1,9.8l6.2-15.1c-4.4-3.4-9.5-6.1-15.2-8C194,73.9,188,73,181.8,73
	c-7.1,0-13.4,1.1-18.8,3.4c-5.4,2.3-9.6,5.4-12.6,9.5c-3,4.1-4.5,8.8-4.5,14.2c0,6.4,2,11.6,5.9,15.7c3.9,4,9.9,6.9,18,8.7l14.2,3.2
	c4.7,1.2,8,2.5,9.9,3.9c1.8,1.4,2.8,3.4,2.8,6.1c0,3.1-1.3,5.5-4,7.1c-2.7,1.7-6.6,2.5-11.7,2.5c-12,0-22.6-3.4-31.9-10.1l-6.2,15.5
	c4.5,3.6,10,6.3,16.5,8.2c6.5,1.9,13.6,2.8,21.3,2.8c11.2,0,20-2.4,26.5-7.1c6.5-4.7,9.8-11.2,9.8-19.2c0-6.6-2-12-6.1-16.1
	C206.8,117,200.5,114,191.8,112.1z"/>
<path class="st0" d="M272.4,73c-8.2,0-15.5,1.9-22,5.7c-6.5,3.8-11.5,9.1-15,16c-3.6,6.9-5.3,14.8-5.3,23.7c0,14,4.1,25,12.4,33.1
	c8.2,8.1,19.5,12.1,33.7,12.1c6.2,0,12.3-1,18.4-3c6.1-2,11.2-4.7,15.2-8l-6.4-15.3c-8,6.2-16.7,9.3-26.3,9.3
	c-7.7,0-13.6-2-17.8-5.9c-4.2-3.9-6.6-9.9-7.3-18h59.3v-6.2c0-13.5-3.5-24.1-10.4-31.9C293.9,76.8,284.4,73,272.4,73z M252,110.7
	c0.8-7.1,3.1-12.6,6.7-16.4c3.6-3.8,8.4-5.7,14.3-5.7c5.9,0,10.6,1.9,13.9,5.6c3.3,3.7,5.1,9.2,5.3,16.5H252z"/>
<polygon class="st0" points="423.4,136 401.1,75.1 385.1,75.1 362.8,135.6 340.6,75.1 317.8,75.1 352.2,162.2 371.4,162.2 
	392.2,106.1 413.6,162.2 433,162.2 467.2,75.1 445.4,75.1 "/>
<path class="st0" d="M530.9,73c-6.1,0-11.5,1.2-16.5,3.6c-4.9,2.4-8.9,6-11.8,10.6V36.7h-22.3v125.5h22.3v-49.3
	c0-6.8,1.9-12.2,5.8-16.2c3.9-4,9-6.1,15.4-6.1c5.5,0,9.5,1.5,12,4.6c2.6,3.1,3.8,8,3.8,14.8v52.2h22.3v-53.4
	c0-12-2.6-20.9-7.7-26.9C549.1,76,541.3,73,530.9,73z"/>
<path class="st0" d="M601.5,110.7c0.8-7.1,3.1-12.6,6.7-16.4c3.6-3.8,8.4-5.7,14.3-5.7c3.6,0,6.8,0.7,9.5,2.1V74
	c-3.1-0.7-6.4-1-10-1c-8.2,0-15.5,1.9-22,5.7c-6.5,3.8-11.5,9.1-15,16c-3.6,6.9-5.3,14.8-5.3,23.7c0,14,4.1,25,12.4,33.1
	c8.2,8.1,19.5,12.1,33.7,12.1c2.1,0,4.2-0.1,6.2-0.4v-17.1c-1.8,0.2-3.5,0.3-5.4,0.3c-7.7,0-13.6-2-17.8-5.9
	c-4.2-3.9-6.6-9.9-7.3-18H632v-11.9H601.5z"/>
</svg>
