<?xml version="1.0" encoding="utf-8"?>
<!-- Generator: Adobe Illustrator 22.0.1, SVG Export Plug-In . SVG Version: 6.00 Build 0)  -->
<svg version="1.1" id="Layer_1" xmlns="http://www.w3.org/2000/svg" xmlns:xlink="http://www.w3.org/1999/xlink" x="0px" y="0px"
	 viewBox="0 0 452 200" style="enable-background:new 0 0 452 200;" xml:space="preserve">
<style type="text/css">
	.st0{fill:#FFFFFF;}
</style>
<path class="st0" d="M353.9,91.3l-13,1.2c-14.7,1.5-22.1,9-22.1,22.4v47h-22.2V75h21.2v15.3c4.5-10.4,13.8-16.1,27.9-17.1l6.8-0.5
	L353.9,91.3z"/>
<path class="st0" d="M451.9,162h-27.6L387,122.3V162h-22.2V36.6H387V113l35-37.9h27l-39.1,41.6L451.9,162z"/>
<path class="st0" d="M272.9,94.1c-3.6-6.8-8.8-12.1-15.5-15.7c-6.7-3.7-14.5-5.5-23.4-5.5c0,0,0,0,0,0v17.1c0,0,0,0,0,0
	c7.1,0,12.6,2.4,16.4,7.2c3.8,4.8,5.7,11.8,5.7,20.9c0,9.2-1.9,16.2-5.7,21c-3.8,4.7-9.2,7.1-16.4,7.1v17.3c0,0,0,0,0,0
	c8.9,0,16.7-1.8,23.4-5.5c6.7-3.7,11.9-9,15.5-15.8c3.6-6.9,5.4-14.9,5.4-24C278.3,108.9,276.5,100.9,272.9,94.1z"/>
<polygon points="134.9,130.5 103.1,36.6 86.9,36.6 54.2,129.9 23,36.6 -0.1,36.6 44,162 62.7,162 94.4,71.8 125.9,162 144.5,162 
	188.8,36.6 167,36.6 "/>
<path d="M233.8,146.1c-7.1,0-12.6-2.4-16.4-7.1c-3.8-4.7-5.7-11.7-5.7-21c0-9.1,1.9-16.1,5.8-20.9c3.9-4.8,9.3-7.2,16.4-7.2V72.8
	c-8.9,0-16.7,1.8-23.4,5.5c-6.7,3.7-11.9,8.9-15.6,15.7c-3.7,6.8-5.5,14.8-5.5,23.9c0,9.1,1.8,17.1,5.5,24
	c3.7,6.9,8.9,12.2,15.6,15.8c6.7,3.7,14.5,5.5,23.4,5.5v-17.3C233.9,146.1,233.9,146.1,233.8,146.1z"/>
</svg>
