<?xml version="1.0" encoding="UTF-8"?>
<svg width="36px" height="30px" viewBox="0 0 36 30" version="1.1" xmlns="http://www.w3.org/2000/svg" xmlns:xlink="http://www.w3.org/1999/xlink">
    <!-- Generator: Sketch 49 (51002) - http://www.bohemiancoding.com/sketch -->
    <title>circular-down-arrow-button</title>
    <desc>Created with Sketch.</desc>
    <defs></defs>
    <g id="Desktop" stroke="none" stroke-width="1" fill="none" fill-rule="evenodd">
        <g id="Desktop---seasor" transform="translate(-1335.000000, -4804.000000)" fill="#0000FF" fill-rule="nonzero">
            <g id="Group-2" transform="translate(1062.000000, 4776.000000)">
                <g id="circular-down-arrow-button" transform="translate(291.000000, 43.000000) rotate(-90.000000) translate(-291.000000, -43.000000) translate(276.000000, 25.000000)">
                    <path d="M29.4884951,19.8266702 C30.1705016,20.5038777 30.1705016,21.6533405 29.4884951,22.3306681 L16.3056971,35.5098445 C16.2069713,35.6078756 16.1082455,35.7059067 16.0184728,35.7059067 L15.919747,35.8039378 C15.8210212,35.8039378 15.8210212,35.9019689 15.7222954,35.9019689 C15.6235696,35.9019689 15.6235696,35.9019689 15.5248438,36 C15.426118,36 15.426118,36 15.3273922,36 C15.2286664,36 15.1299406,36 14.941563,36 C14.8428372,36 14.7441114,36 14.5557339,36 C14.4570081,36 14.4570081,36 14.3582823,36 C14.2595565,36 14.2595565,36 14.1608307,35.9019689 C14.0621049,35.9019689 14.0621049,35.8039378 13.9633791,35.8039378 C13.9633791,35.8039378 13.8646533,35.8039378 13.8646533,35.7059067 C13.7659275,35.6078756 13.6672017,35.6078756 13.577429,35.5098445 L0.511504903,22.2325169 C-0.170501634,21.5553094 -0.170501634,20.4058466 0.511504903,19.728519 C1.19351144,19.0511914 2.35111984,19.0513115 3.03324736,19.728519 L13.3084738,29.9314423 L13.3084738,1.72875926 C13.3084738,0.766348528 14.080253,0 15.0494839,0 C16.0187147,0 16.790494,0.766348528 16.790494,1.72875926 L16.790494,29.9226724 L26.8772219,19.9158113 C27.6488802,19.1493426 28.8154416,19.1493426 29.4884951,19.8266702 Z" id="Shape"></path>
                </g>
            </g>
        </g>
    </g>
</svg>