<?xml version="1.0" encoding="UTF-8"?>
<svg width="504px" height="1003px" viewBox="0 0 504 1003" version="1.1" xmlns="http://www.w3.org/2000/svg" xmlns:xlink="http://www.w3.org/1999/xlink">
    <!-- Generator: Sketch 49 (51002) - http://www.bohemiancoding.com/sketch -->
    <title>Graph</title>
    <desc>Created with Sketch.</desc>
    <defs></defs>
    <g id="Desktop" stroke="none" stroke-width="1" fill="none" fill-rule="evenodd">
        <g id="Desktop---TACIT" transform="translate(-468.000000, -1689.000000)">
            <g id="Graph" transform="translate(470.000000, 1691.000000)">
                <path d="M31.5398887,51.0204082 L31.5399165,184.081633 C31.5399185,195.127326 40.4942229,204.081629 51.5399165,204.081629 L231.391493,204.081633 C242.437188,204.081633 251.391493,195.127328 251.391493,184.081633 L251.391493,107.662338 C251.391493,96.6166427 242.437188,87.6623377 231.391493,87.6623377 L133.17257,87.6623377 C122.126875,87.6623377 113.17257,96.6166427 113.17257,107.662338 L113.17257,226.753247 C113.17257,237.798942 122.126875,246.753247 133.17257,246.753247 L182.226373,246.753247 C193.272068,246.753247 202.226373,237.798942 202.226373,226.753247 L202.226373,165.533749 C202.226373,154.488054 211.180678,145.533749 222.226373,145.533749 L448.460139,145.533749 C459.505834,145.533749 468.460139,154.488054 468.460139,165.533749 L468.460139,334.609083 C468.460139,345.654778 459.505834,354.609083 448.460139,354.609083 L409.742779,354.609083 C404.43845,354.609083 399.351371,356.71622 395.600644,360.466948 L347.769848,408.297743 L347.769848,501.038914 L325.578664,501.038914 L325.578664,410.828129 L276.708309,361.957775 C272.957581,358.207047 267.870503,356.09991 262.566173,356.09991 L51.5398887,356.09991 C40.4941937,356.09991 31.5398887,365.054215 31.5398887,376.09991 L31.5398887,621.003154 C31.5398887,632.048849 40.4941937,641.003154 51.5398887,641.003154 L134.162611,641.003154 C136.924034,641.003154 139.162611,638.764578 139.162611,636.003154 L139.162611,609.091879 L128.475365,595.046438 C113.465559,575.320145 117.289026,547.160973 137.015319,532.151167 C144.828396,526.206169 154.375281,522.987013 164.192978,522.987013 C164.192978,522.987013 164.192978,522.987013 164.192978,522.987013 C164.192978,522.987013 164.192978,522.987013 164.192978,522.987013 L164.192978,522.987013 C189.083134,522.987013 209.260593,543.164472 209.260593,568.054628 C209.260593,578.170582 205.857213,587.99238 199.598131,595.939482 L189.23936,609.091879 L189.23936,647.133581 C189.23936,649.895004 187.000784,652.133581 184.23936,652.133581 L159.554759,652.133581 C154.943847,652.133581 151.205965,655.871463 151.205965,660.482375 L151.205965,660.482375 C151.205965,665.093286 154.943847,668.831169 159.554759,668.831169 L448.460139,668.831169 C459.505834,668.831169 468.460139,677.785474 468.460139,688.831169 L468.460139,916.088051 C468.460139,927.133746 459.505834,936.088051 448.460139,936.088051 L189.686177,936.088051 C178.640482,936.088051 169.686177,927.133746 169.686177,916.088051 L169.686177,810.339753 C169.686177,799.294058 178.640482,790.339753 189.686177,790.339753 L292.642791,790.339753 C303.688486,790.339753 312.642791,799.294058 312.642791,810.339753 C312.642791,814.843273 311.122834,819.214983 308.328988,822.747138 L273.666477,866.569664 C272.069157,868.589097 269.199397,869.065312 267.035432,867.670036 L236.307758,847.85752 C232.594445,845.463259 227.643278,846.532562 225.249017,850.245875 C225.154217,850.392902 225.064265,850.543 224.979307,850.695925 L223.523574,853.316244 C221.462952,857.025363 222.656583,861.698077 226.243642,863.964512 L268.937689,890.940177 C271.085047,892.296956 273.908458,891.828093 275.502031,889.850084 L321.358238,832.93149 C323.090678,830.781115 326.238321,830.442312 328.388697,832.174752 C329.566823,833.123904 330.251837,834.555449 330.251837,836.06835 L330.251837,920.222635" id="Path-4" stroke="#202020" stroke-width="4"></path>
                <circle id="Oval-2" fill="#0000FF" cx="153.988868" cy="116.883117" r="9.27643785"></circle>
                <circle id="Oval-2" fill="#0000FF" cx="172.541744" cy="177.179963" r="9.27643785"></circle>
                <circle id="Oval-2" fill="#0000FF" cx="200.371058" cy="126.159555" r="9.27643785"></circle>
                <circle id="Oval-2" fill="#0000FF" cx="308.90538" cy="352.504638" r="9.27643785"></circle>
                <circle id="Oval-2" fill="#0000FF" cx="336.734694" cy="371.057514" r="9.27643785"></circle>
                <circle id="Oval-2" fill="#0000FF" cx="355.28757" cy="340.445269" r="9.27643785"></circle>
                <circle id="Oval-2" fill="#0000FF" cx="145.640074" cy="572.152134" r="9.27643785"></circle>
                <circle id="Oval-2" fill="#0000FF" cx="172.541744" cy="593.487941" r="9.27643785"></circle>
                <circle id="Oval-2" fill="#0000FF" cx="166.975881" cy="549.888683" r="9.27643785"></circle>
                <circle id="Oval-2" fill="#0000FF" cx="246.753247" cy="814.471243" r="9.27643785"></circle>
                <circle id="Oval-2" fill="#0000FF" cx="264.378479" cy="835.80705" r="9.27643785"></circle>
                <circle id="Oval-2" fill="#0000FF" cx="286.641929" cy="820.037106" r="9.27643785"></circle>
                <g id="step">
                    <g>
                        <circle id="Oval" stroke="#202020" stroke-width="4" fill="#FFFFFF" cx="31" cy="31" r="31"></circle>
                        <text id="1" font-family="Avenir-Black, Avenir" font-size="24" font-weight="700" fill="#202020">
                            <tspan x="24.0597015" y="38.5">1</tspan>
                        </text>
                    </g>
                </g>
                <g id="step" transform="translate(358.070501, 116.883117)">
                    <g>
                        <circle id="Oval" stroke="#202020" stroke-width="4" fill="#FFFFFF" cx="31" cy="31" r="31"></circle>
                        <text id="1" font-family="Avenir-Black, Avenir" font-size="24" font-weight="700" fill="#202020">
                            <tspan x="24.0597015" y="38.5">2</tspan>
                        </text>
                    </g>
                </g>
                <g id="step" transform="translate(0.000000, 423.005566)">
                    <g>
                        <circle id="Oval" stroke="#202020" stroke-width="4" fill="#FFFFFF" cx="31" cy="31" r="31"></circle>
                        <text id="1" font-family="Avenir-Black, Avenir" font-size="24" font-weight="700" fill="#202020">
                            <tspan x="24.0597015" y="38.5">3</tspan>
                        </text>
                    </g>
                </g>
                <g id="step" transform="translate(437.847866, 782.931354)">
                    <g>
                        <circle id="Oval" stroke="#202020" stroke-width="4" fill="#FFFFFF" cx="31" cy="31" r="31"></circle>
                        <text id="1" font-family="Avenir-Black, Avenir" font-size="24" font-weight="700" fill="#202020">
                            <tspan x="24.0597015" y="38.5">4</tspan>
                        </text>
                    </g>
                </g>
                <text id="Explorations" font-family="Avenir-Medium, Avenir" font-size="32" font-weight="400" fill="#C2C2C2">
                    <tspan x="67" y="295">Explorations</tspan>
                </text>
                <text id="Synthesis" font-family="Avenir-Medium, Avenir" font-size="32" font-weight="400" fill="#C2C2C2">
                    <tspan x="265" y="551">Synthesis</tspan>
                </text>
                <text id="Conceptualization" font-family="Avenir-Medium, Avenir" font-size="32" font-weight="400" fill="#C2C2C2">
                    <tspan x="26" y="726">Conceptualization</tspan>
                </text>
                <text id="Evaluation" font-family="Avenir-Medium, Avenir" font-size="32" font-weight="400" fill="#C2C2C2">
                    <tspan x="181" y="1000">Evaluation</tspan>
                </text>
            </g>
        </g>
    </g>
</svg>